<svg width="452" height="64" viewBox="0 0 452 64" fill="none"
    xmlns="http://www.w3.org/2000/svg">
    <path d="M3.5918 62C2.71289 62 2.04492 61.7715 1.58789 61.3145C1.13086 60.8223 0.902344 60.2949 0.902344 59.7324C0.902344 59.1699 1.11328 58.6602 1.53516 58.2031C1.99219 57.7109 2.66016 57.4648 3.53906 57.4648H17.7246V4.7832H5.75391C4.875 4.7832 4.22461 4.55469 3.80273 4.09766C3.38086 3.64062 3.16992 3.13086 3.16992 2.56836C3.16992 1.9707 3.38086 1.44336 3.80273 0.986328C4.25977 0.494141 4.92773 0.248047 5.80664 0.248047H30.75C31.6641 0.248047 32.332 0.494141 32.7539 0.986328C33.2109 1.44336 33.4395 1.9707 33.4395 2.56836C33.4395 3.13086 33.2109 3.64062 32.7539 4.09766C32.332 4.55469 31.6816 4.7832 30.8027 4.7832H22.7871V57.4648H46.8867C47.4844 57.3945 47.9766 57.2539 48.3633 57.043C48.75 56.832 48.9785 56.3223 49.0488 55.5137L50.8418 40.959C50.9473 40.1855 51.2637 39.623 51.791 39.2715C52.3184 38.8848 52.8809 38.6914 53.4785 38.6914C54.1816 38.6914 54.7969 38.9199 55.3242 39.377C55.8867 39.7988 56.168 40.4316 56.168 41.2754L54.5859 58.5195C54.5156 59.5039 54.1465 60.3301 53.4785 60.998C52.8105 61.666 51.9141 62 50.7891 62H3.5918ZM66.8203 62C65.9414 62 65.2734 61.7715 64.8164 61.3145C64.3594 60.8223 64.1309 60.2949 64.1309 59.7324C64.1309 59.1699 64.3418 58.6602 64.7637 58.2031C65.2207 57.7109 65.8887 57.4648 66.7676 57.4648H75.1523V4.83594H66.7676C65.8887 4.83594 65.2207 4.60742 64.7637 4.15039C64.3418 3.6582 64.1309 3.13086 64.1309 2.56836C64.1309 1.9707 64.3594 1.44336 64.8164 0.986328C65.2734 0.494141 65.9414 0.248047 66.8203 0.248047H90.2871C91.166 0.248047 91.8164 0.494141 92.2383 0.986328C92.6953 1.47852 92.9238 2.02344 92.9238 2.62109C92.9238 3.18359 92.7129 3.69336 92.291 4.15039C91.9043 4.60742 91.2715 4.83594 90.3926 4.83594H80.2148V32.5742L110.59 5.15234C110.836 4.90625 110.959 4.73047 110.959 4.625C110.959 4.41406 110.625 4.30859 109.957 4.30859H105.264C104.385 4.30859 103.734 4.11523 103.312 3.72852C102.891 3.30664 102.68 2.84961 102.68 2.35742C102.68 1.83008 102.908 1.35547 103.365 0.933594C103.822 0.476562 104.473 0.248047 105.316 0.248047H124.406C125.285 0.248047 125.936 0.494141 126.357 0.986328C126.779 1.44336 126.99 1.9707 126.99 2.56836C126.99 3.13086 126.779 3.6582 126.357 4.15039C125.936 4.60742 125.303 4.83594 124.459 4.83594H117.182L94.084 26.3516L121.559 57.4648H128.783C129.627 57.4648 130.26 57.7109 130.682 58.2031C131.104 58.6602 131.314 59.1699 131.314 59.7324C131.314 60.2949 131.104 60.8223 130.682 61.3145C130.26 61.7715 129.609 62 128.73 62H106.688C105.809 62 105.141 61.7715 104.684 61.3145C104.262 60.8223 104.051 60.2949 104.051 59.7324C104.051 59.1699 104.262 58.6602 104.684 58.2031C105.105 57.7109 105.756 57.4648 106.635 57.4648H115.389L90.1816 29.252L80.4258 37.4785V57.4648H93.293C94.1719 57.4648 94.8223 57.7109 95.2441 58.2031C95.666 58.6602 95.877 59.1699 95.877 59.7324C95.877 60.2949 95.6484 60.8223 95.1914 61.3145C94.7695 61.7715 94.1191 62 93.2402 62H66.8203ZM138.803 62C137.924 62 137.256 61.7715 136.799 61.3145C136.342 60.8574 136.113 60.3652 136.113 59.8379C136.113 59.2754 136.324 58.7832 136.746 58.3613C137.203 57.9043 137.871 57.6758 138.75 57.6758H145.342V4.7832H140.227C139.348 4.7832 138.68 4.55469 138.223 4.09766C137.801 3.64062 137.59 3.13086 137.59 2.56836C137.59 1.9707 137.818 1.44336 138.275 0.986328C138.732 0.494141 139.4 0.248047 140.279 0.248047H157.154C162.252 0.248047 166.734 0.652344 170.602 1.46094C174.504 2.26953 177.545 3.86914 179.725 6.25977C181.904 8.65039 182.994 12.2363 182.994 17.0176C182.994 21.0605 181.869 24.2422 179.619 26.5625C177.369 28.8477 174.873 30.5 172.131 31.5195L182.889 57.6758H187.318C188.654 57.6758 189.551 57.9043 190.008 58.3613C190.465 58.7832 190.693 59.2578 190.693 59.7852C190.693 60.3477 190.447 60.8574 189.955 61.3145C189.463 61.7715 188.602 62 187.371 62H174.979C174.1 62 173.432 61.7715 172.975 61.3145C172.518 60.8574 172.289 60.3477 172.289 59.7852C172.289 59.2578 172.5 58.7832 172.922 58.3613C173.344 57.9043 173.994 57.6758 174.873 57.6758H177.562L168.07 32.6797C167.824 32.75 167.174 32.8555 166.119 32.9961C165.1 33.1016 163.975 33.207 162.744 33.3125C161.514 33.3828 160.477 33.418 159.633 33.418H150.404V57.6758H159.896C160.775 57.6758 161.426 57.9043 161.848 58.3613C162.27 58.7832 162.48 59.2754 162.48 59.8379C162.48 60.3652 162.27 60.8574 161.848 61.3145C161.426 61.7715 160.758 62 159.844 62H138.803ZM150.404 29.3574H156.047C160.406 29.3574 164.221 29.0938 167.49 28.5664C170.795 28.0039 173.361 26.8789 175.189 25.1914C177.018 23.4688 177.932 20.8672 177.932 17.3867C177.932 13.8008 177.229 11.1113 175.822 9.31836C174.416 7.49023 172.184 6.27734 169.125 5.67969C166.066 5.08203 162.059 4.7832 157.102 4.7832H150.404V29.3574ZM225.867 62.8438C224.25 62.8438 222.914 62.334 221.859 61.3145C220.805 60.2598 220.277 58.9238 220.277 57.3066C220.277 55.6895 220.805 54.3535 221.859 53.2988C222.949 52.2441 224.285 51.7168 225.867 51.7168C227.449 51.7168 228.768 52.2617 229.822 53.3516C230.912 54.4062 231.457 55.7246 231.457 57.3066C231.457 58.9238 230.912 60.2598 229.822 61.3145C228.768 62.334 227.449 62.8438 225.867 62.8438ZM266.578 62C265.699 62 265.031 61.7715 264.574 61.3145C264.117 60.8223 263.889 60.2949 263.889 59.7324C263.889 59.1699 264.1 58.6602 264.521 58.2031C264.979 57.7109 265.646 57.4648 266.525 57.4648H275.121V4.7832H266.736C265.893 4.7832 265.26 4.55469 264.838 4.09766C264.416 3.64062 264.205 3.13086 264.205 2.56836C264.205 1.9707 264.416 1.44336 264.838 0.986328C265.295 0.494141 265.963 0.248047 266.842 0.248047H285.721C291.768 0.248047 297.023 1.33789 301.488 3.51758C305.988 5.66211 309.486 8.98438 311.982 13.4844C314.479 17.9844 315.727 23.7676 315.727 30.834C315.727 41.9785 313.09 49.959 307.816 54.7754C302.543 59.5918 295.143 62 285.615 62H266.578ZM280.184 57.4648H285.984C294.703 57.4648 300.996 55.2324 304.863 50.7676C308.73 46.3027 310.664 39.6582 310.664 30.834C310.664 22.502 308.607 16.0859 304.494 11.5859C300.381 7.05078 294.457 4.7832 286.723 4.7832H280.184V57.4648ZM332.127 62C331.248 62 330.58 61.7715 330.123 61.3145C329.666 60.8223 329.438 60.2949 329.438 59.7324C329.438 59.1699 329.648 58.6602 330.07 58.2031C330.527 57.7461 331.195 57.5176 332.074 57.5176H341.039V4.7832H333.92C333.076 4.7832 332.443 4.55469 332.021 4.09766C331.6 3.64062 331.389 3.13086 331.389 2.56836C331.389 1.9707 331.6 1.44336 332.021 0.986328C332.479 0.494141 333.146 0.248047 334.025 0.248047H380.326C382.295 0.248047 383.279 1.19727 383.279 3.0957V17.334C383.279 18.1074 383.051 18.6875 382.594 19.0742C382.172 19.4609 381.697 19.6543 381.17 19.6543C380.643 19.6543 380.15 19.4961 379.693 19.1797C379.236 18.8281 378.99 18.3184 378.955 17.6504L378.217 4.7832H346.102V27.5117H363.293L363.979 20.498C364.049 19.6895 364.295 19.0918 364.717 18.7051C365.174 18.3184 365.631 18.125 366.088 18.125C366.58 18.125 367.037 18.3535 367.459 18.8105C367.881 19.2324 368.092 19.9355 368.092 20.9199V38.9551C368.092 39.8691 367.881 40.5547 367.459 41.0117C367.037 41.4336 366.58 41.6445 366.088 41.6445C365.596 41.6445 365.139 41.4512 364.717 41.0645C364.295 40.6777 364.049 40.1152 363.979 39.377L363.293 31.5723H346.102V57.5176H378.533L379.377 44.2812C379.412 43.6484 379.658 43.1562 380.115 42.8047C380.607 42.418 381.135 42.2246 381.697 42.2246C382.26 42.2246 382.77 42.4531 383.227 42.9102C383.684 43.332 383.912 44.0176 383.912 44.9668V59.2051C383.912 61.0684 382.928 62 380.959 62H332.127ZM424.465 63.8984C423.516 63.8984 422.777 63.6172 422.25 63.0547C421.758 62.5273 421.371 61.8242 421.09 60.9453L403.055 4.7832H397.57C396.727 4.7832 396.094 4.55469 395.672 4.09766C395.25 3.64062 395.039 3.13086 395.039 2.56836C395.039 1.9707 395.25 1.44336 395.672 0.986328C396.129 0.494141 396.797 0.248047 397.676 0.248047H415.605C416.484 0.248047 417.135 0.476562 417.557 0.933594C418.014 1.39063 418.242 1.91797 418.242 2.51562C418.242 3.07813 418.031 3.60547 417.609 4.09766C417.188 4.55469 416.537 4.7832 415.658 4.7832H408.75L424.729 55.7246L439.23 4.7832H432.902C432.023 4.7832 431.355 4.55469 430.898 4.09766C430.477 3.60547 430.266 3.07813 430.266 2.51562C430.266 1.91797 430.494 1.39063 430.951 0.933594C431.408 0.476562 432.076 0.248047 432.955 0.248047H448.986C449.865 0.248047 450.516 0.476562 450.938 0.933594C451.395 1.39063 451.623 1.91797 451.623 2.51562C451.623 3.07813 451.412 3.60547 450.99 4.09766C450.568 4.55469 449.918 4.7832 449.039 4.7832H444.504L427.84 60.9453C427.418 61.8945 426.979 62.6152 426.521 63.1074C426.1 63.6348 425.414 63.8984 424.465 63.8984Z" fill="#fff"/>
</svg>
